<?xml version="1.0" encoding="UTF-8"?>
<svg version="1.1" xmlns="http://www.w3.org/2000/svg" width="128" height="128">
<path d="M0 0 C1.26165985 -0.01591187 2.5233197 -0.03182373 3.82321167 -0.04821777 C5.19740747 -0.04948518 6.57160465 -0.0496618 7.94580078 -0.04882812 C9.36060894 -0.0559325 10.77541422 -0.0636319 12.19021606 -0.07189941 C15.15423592 -0.08533783 18.11798948 -0.08691642 21.08203125 -0.08105469 C24.87082563 -0.07516421 28.65833605 -0.10572347 32.44688225 -0.14617157 C35.36897604 -0.17209066 38.29076258 -0.17492218 41.21295547 -0.17127991 C42.60915474 -0.1729678 44.0053687 -0.18257865 45.40145493 -0.20042419 C57.66813918 -0.33995221 57.66813918 -0.33995221 61.66894531 2.83203125 C63.76611328 5.41992187 63.76611328 5.41992187 63.76611328 7.41992188 C64.65298828 7.64679687 65.53986328 7.87367188 66.45361328 8.10742188 C70.80192934 9.83033956 73.50266231 12.28487106 75.89002419 16.31917 C76.84283635 18.60389418 77.02215657 20.19163026 77.03353882 22.6569519 C77.04633377 23.91431656 77.04633377 23.91431656 77.05938721 25.19708252 C77.05802765 26.56398224 77.05802765 26.56398224 77.05664062 27.95849609 C77.06335785 28.9247995 77.07007507 29.89110291 77.07699585 30.88668823 C77.09600171 34.08271418 77.09990135 37.27853042 77.10205078 40.47460938 C77.10847683 42.69654426 77.11520504 44.91847828 77.1222229 47.14041138 C77.13420209 51.79919395 77.13790305 56.45790233 77.13671875 61.11669922 C77.13651551 67.08440887 77.16382033 73.05164258 77.19826317 79.01923943 C77.2205078 83.60891909 77.22455703 88.19848377 77.2234993 92.78821182 C77.22585882 94.988228 77.23470205 97.18824719 77.25016403 99.3882103 C77.26977445 102.46666483 77.264005 105.5440872 77.25195312 108.62255859 C77.26319214 109.52977661 77.27443115 110.43699463 77.28601074 111.3717041 C77.23135768 116.86948685 76.56007781 120.15179203 72.76611328 124.41992188 C67.57786738 129.1058983 62.91180304 128.99247052 56.26611328 128.9375 C55.22148926 128.94450928 54.17686523 128.95151855 53.10058594 128.95874023 C49.65548948 128.9763121 46.21121777 128.96469969 42.76611328 128.95117188 C40.36767418 128.953867 37.96923614 128.9577496 35.57080078 128.96276855 C30.54725733 128.96866254 25.52399861 128.96010346 20.50048828 128.94140625 C14.06422256 128.91861725 7.62862406 128.93174079 1.19238281 128.95569611 C-3.7593284 128.97015649 -8.71088166 128.96554688 -13.66259766 128.95518494 C-16.03564534 128.95251834 -18.4087074 128.95578502 -20.78173828 128.96510315 C-24.099507 128.97527219 -27.41619817 128.95976121 -30.73388672 128.9375 C-31.71276855 128.94559692 -32.69165039 128.95369385 -33.70019531 128.96203613 C-39.3632415 128.89171269 -42.85845811 128.37176912 -47.23388672 124.41992188 C-51.7201917 119.36295193 -51.80923423 115.10929659 -51.75146484 108.67016602 C-51.75847412 107.70517685 -51.7654834 106.74018768 -51.77270508 105.74595642 C-51.79026779 102.56536837 -51.77866713 99.38567477 -51.76513672 96.20507812 C-51.76783234 93.9883965 -51.77171534 91.77171603 -51.7767334 89.55503845 C-51.78262632 84.91231005 -51.77407266 80.2698898 -51.75537109 75.62719727 C-51.73259535 69.68425205 -51.74569772 63.74202999 -51.76966095 57.79911137 C-51.78413565 53.22222983 -51.77950496 48.64551888 -51.76914978 44.06863213 C-51.76648644 41.87783154 -51.76973838 39.68701533 -51.77906799 37.49623299 C-51.78925931 34.43009738 -51.77369498 31.36512178 -51.75146484 28.29907227 C-51.75956177 27.39859161 -51.76765869 26.49811096 -51.77600098 25.57034302 C-51.6972291 19.68745501 -50.64812392 16.24765269 -47.23388672 11.41992188 C-40.87905749 6.01526601 -33.79603982 6.95993603 -25.79638672 7.16992188 C-24.4925 7.18796875 -23.18861328 7.20601563 -21.84521484 7.22460938 C-18.64067762 7.2715623 -15.43766782 7.33722724 -12.23388672 7.41992188 C-11.98638672 6.82179688 -11.73888672 6.22367187 -11.48388672 5.60742188 C-8.67812979 0.69734724 -5.43160771 0.04119894 0 0 Z " fill="#E6A32D" transform="translate(51.23388671875,-0.419921875)"/>
<path d="M0 0 C1.26158432 -0.01583633 2.52316864 -0.03167267 3.82298279 -0.04798889 C5.19196952 -0.04414702 6.56095333 -0.03910775 7.92993164 -0.03295898 C9.34331165 -0.03819791 10.75668816 -0.04447537 12.1700592 -0.05174255 C15.12818892 -0.06213483 18.08583727 -0.05760335 21.04394531 -0.04296875 C24.82491677 -0.02578945 28.60436728 -0.04926887 32.38516903 -0.08445835 C35.30300362 -0.10647714 38.22047682 -0.10498019 41.13836861 -0.09669304 C42.53176097 -0.0958758 43.92518046 -0.10269573 45.3184948 -0.11746407 C57.54406696 -0.22718353 57.54406696 -0.22718353 61.49072266 2.82275391 C64.54731165 6.65531264 64.77876787 9.58505533 64.76611328 14.39379883 C64.76599998 15.83483978 64.76599998 15.83483978 64.7658844 17.30499268 C64.76072311 18.33428894 64.75556183 19.36358521 64.75024414 20.42407227 C64.74882919 21.48382263 64.74741425 22.543573 64.74595642 23.63543701 C64.74036171 27.01813588 64.72781014 30.40076842 64.71508789 33.78344727 C64.71007221 36.07771714 64.70550942 38.37198806 64.70141602 40.66625977 C64.690394 46.28867821 64.6736611 51.911058 64.65258789 57.53344727 C59.1025394 57.65767356 53.55331207 57.74808044 48.00219727 57.80810547 C46.11663706 57.83314504 44.23117291 57.86718726 42.34594727 57.91064453 C39.62500226 57.97176512 36.90534762 57.9997622 34.18383789 58.02172852 C33.350177 58.04753494 32.51651611 58.07334137 31.65759277 58.09992981 C25.50566869 58.10283312 21.39616124 56.47467877 16.65258789 52.53344727 C14.59015084 50.2618363 12.84951368 47.89934032 11.15258789 45.34594727 C10.71172852 44.7175293 10.27086914 44.08911133 9.81665039 43.44165039 C6.65258789 38.847864 6.65258789 38.847864 6.65258789 36.53344727 C1.38759501 34.39899069 -2.70806734 33.38028569 -8.42163086 33.21704102 C-9.10546341 33.19625992 -9.78929596 33.17547882 -10.49385071 33.15406799 C-12.67410421 33.08878572 -14.85447616 33.02978709 -17.03491211 32.97094727 C-18.51474197 32.92774174 -19.99455994 32.88412679 -21.47436523 32.84008789 C-25.09858833 32.73312644 -28.722944 32.63179903 -32.34741211 32.53344727 C-31.73353063 27.25654691 -31.17357836 24.35961352 -27.34741211 20.53344727 C-24.17952571 18.55608405 -21.80045108 18.31099887 -18.09741211 18.40844727 C-17.20538086 18.42649414 -16.31334961 18.44454102 -15.39428711 18.46313477 C-14.71881836 18.48633789 -14.04334961 18.50954102 -13.34741211 18.53344727 C-13.37061523 17.94176758 -13.39381836 17.35008789 -13.41772461 16.74047852 C-13.61037701 8.30505544 -13.61037701 8.30505544 -11.34741211 4.53344727 C-7.57521902 0.90269463 -5.20249745 0.02911126 0 0 Z " fill="#DDD9E9" transform="translate(51.347412109375,-0.533447265625)"/>
<path d="M0 0 C1.89755791 -0.01925285 1.89755791 -0.01925285 3.83345032 -0.03889465 C5.22123829 -0.04706227 6.60903069 -0.05450596 7.99682617 -0.0612793 C9.04383981 -0.06739259 9.04383981 -0.06739259 10.11200523 -0.07362938 C13.80708902 -0.09449026 17.50213568 -0.10879138 21.19726562 -0.11816406 C25.01063097 -0.12922377 28.82341202 -0.16361758 32.63657093 -0.20333576 C35.57143729 -0.22950496 38.50616455 -0.23785615 41.44113731 -0.24144554 C42.84654368 -0.24631145 44.25194384 -0.25792575 45.6572361 -0.27648354 C47.62681613 -0.30087456 49.59668039 -0.2974902 51.56640625 -0.29296875 C53.24613274 -0.30176811 53.24613274 -0.30176811 54.95979309 -0.31074524 C58.65738367 0.28693109 60.29859985 1.6157963 62.97729492 4.17700195 C65.41179381 7.60157305 65.2087425 10.7919775 65.17260742 14.91137695 C65.16616211 16.20688477 65.1597168 17.50239258 65.15307617 18.8371582 C65.13636685 20.20044214 65.11943698 21.56372339 65.10229492 22.92700195 C65.09225832 24.3059018 65.08313366 25.68480861 65.07495117 27.0637207 C65.05137586 30.43499078 65.01846762 33.80590831 64.97729492 37.17700195 C61.26922896 37.293749 57.56163953 37.36443469 53.85229492 37.42700195 C52.80557617 37.46051758 51.75885742 37.4940332 50.68041992 37.52856445 C44.59617671 37.60558019 40.62368195 37.52949101 35.97729492 33.17700195 C34.01908073 30.90356977 32.29280737 28.5290368 30.60229492 26.05200195 C30.15241211 25.41907227 29.7025293 24.78614258 29.23901367 24.1340332 C25.97729492 19.46452095 25.97729492 19.46452095 25.97729492 17.17700195 C20.71230204 15.04254538 16.61663969 14.02384037 10.90307617 13.8605957 C10.21924362 13.83981461 9.53541107 13.81903351 8.83085632 13.79762268 C6.65060282 13.73234041 4.47023087 13.67334178 2.28979492 13.61450195 C0.80996506 13.57129642 -0.66985291 13.52768148 -2.1496582 13.48364258 C-5.7738813 13.37668113 -9.39823697 13.27535372 -13.02270508 13.17700195 C-12.420174 7.89709042 -11.78320542 5.05145685 -8.02270508 1.17700195 C-5.28165033 -0.19352542 -3.0681523 0.02702944 0 0 Z " fill="#F0F3F3" transform="translate(32.022705078125,18.822998046875)"/>
<path d="M0 0 C1.30388672 0.01804687 2.60777344 0.03609375 3.95117188 0.0546875 C7.15570909 0.10164043 10.3587189 0.16730536 13.5625 0.25 C13.2325 3.88 12.9025 7.51 12.5625 11.25 C10.273125 11.37375 10.273125 11.37375 7.9375 11.5 C3.13261296 12.01650837 0.12393421 12.77543004 -3.4375 16.25 C-4.76651155 19.1809 -5.67673479 22.12685862 -6.4375 25.25 C-7.07816406 25.31316406 -7.71882813 25.37632813 -8.37890625 25.44140625 C-15.42761554 26.43936062 -19.06149128 28.66810251 -23.4375 34.25 C-24.0975 35.24 -24.7575 36.23 -25.4375 37.25 C-25.55429952 33.06273706 -25.62495327 28.87589699 -25.6875 24.6875 C-25.72101562 23.50607422 -25.75453125 22.32464844 -25.7890625 21.10742188 C-25.86547856 14.28728891 -25.88673394 9.59625691 -21.4375 4.25 C-15.08267077 -1.15465586 -7.9996531 -0.20998585 0 0 Z " fill="#DF8621" transform="translate(25.4375,6.75)"/>
<path d="M0 0 C5.92514808 1.97504936 8.89545035 3.54580405 12.12643433 8.84881592 C13.16085234 11.39610416 13.24092058 13.29772491 13.22705078 16.04394531 C13.22682419 17.54504852 13.22682419 17.54504852 13.22659302 19.07647705 C13.21627045 20.14952087 13.20594788 21.2225647 13.1953125 22.328125 C13.1924826 23.43226746 13.18965271 24.53640991 13.18673706 25.67401123 C13.17554489 29.1994512 13.15044175 32.72463685 13.125 36.25 C13.11496897 38.64062133 13.10584333 41.03124664 13.09765625 43.421875 C13.0756087 49.28133673 13.04214053 55.14065019 13 61 C9 56.25 9 56.25 9 54 C8.4225 53.71125 7.845 53.4225 7.25 53.125 C5.16666667 52.08333333 3.08333333 51.04166667 1 50 C0.67 33.5 0.34 17 0 0 Z " fill="#DF8621" transform="translate(115,7)"/>
<path d="M0 0 C11.88 0 23.76 0 36 0 C35.67 1.32 35.34 2.64 35 4 C23.45 4 11.9 4 0 4 C0 2.68 0 1.36 0 0 Z " fill="#FCD974" transform="translate(14,74)"/>
<path d="M0 0 C1.32 0.33 2.64 0.66 4 1 C2.45614871 5.14032846 0.48971062 8.93553053 -1.625 12.8125 C-1.94984375 13.40998047 -2.2746875 14.00746094 -2.609375 14.62304688 C-3.40379151 16.08337135 -4.20155376 17.54187491 -5 19 C-9 19 -9 19 -10.703125 17.35546875 C-11.21359375 16.64003906 -11.7240625 15.92460938 -12.25 15.1875 C-13.03117187 14.12595703 -13.03117187 14.12595703 -13.828125 13.04296875 C-15 11 -15 11 -15 8 C-11.12867972 8.57352893 -8.91827204 10.48704352 -6 13 C-5.7525 12.34 -5.505 11.68 -5.25 11 C-3.68182955 7.23639093 -1.85494954 3.6288576 0 0 Z " fill="#B7E6A5" transform="translate(86,30)"/>
<path d="M0 0 C12.21 0 24.42 0 37 0 C37 0.99 37 1.98 37 3 C24.79 3 12.58 3 0 3 C0 2.01 0 1.02 0 0 Z " fill="#FEDE7B" transform="translate(13,67)"/>
</svg>
